<svg width="91" height="465" viewBox="0 0 91 465" fill="none" xmlns="http://www.w3.org/2000/svg">
<circle cx="45" cy="45" r="45" fill="url(#paint0_linear_1_130)"/>
<path d="M91 294C91 318.853 70.8528 339 46 339C21.1472 339 1 318.853 1 294C1 269.147 21.1472 249 46 249C70.8528 249 91 269.147 91 294Z" fill="url(#paint1_linear_1_130)"/>
<circle cx="45" cy="175" r="45" fill="url(#paint2_linear_1_130)"/>
<circle cx="45" cy="420" r="45" fill="url(#paint3_linear_1_130)"/>
<path d="M41.752 403.977H47.2891L31.2402 439.045H25.7031L41.752 403.977ZM50.4531 411.465L65.5 418.795V424.104L50.4531 431.451V425.949L60.4199 421.449L50.4531 416.967V411.465Z" fill="#00C4F0"/>
<path d="M22.1094 283.793V297.469C22.1094 298.576 22.2324 299.666 22.4785 300.686C23.6562 305.572 27.541 309.018 33.0254 309.018C38.5098 309.018 42.377 305.572 43.5547 300.686C43.7832 299.666 43.9238 298.576 43.9238 297.469V283.793H38.668V297.557C38.668 298.365 38.5625 299.156 38.3516 299.912C37.7012 302.268 35.9609 304.148 33.0078 304.148C30.0898 304.148 28.3496 302.268 27.6816 299.912C27.4707 299.156 27.3652 298.365 27.3652 297.557V283.793H22.1094ZM45.998 309H52.4844L58.6719 299.93L64.8594 309H71.3633L61.7129 295.693L70.3262 283.811H63.875L58.6719 291.422L53.4688 283.811H47.0176L55.6309 295.693L45.998 309Z" fill="#00C4F0"/>
<path d="M25.0547 44.7949V50.1035L40.1016 57.4512V51.9492L30.1348 47.4492L40.1016 42.9668V37.4648L25.0547 44.7949ZM59.3145 29.9766L43.2656 65.0449H48.8027L64.8516 29.9766H59.3145Z" fill="#00C4F0"/>
<path d="M29.1094 164.793V178.469C29.1094 179.576 29.2324 180.666 29.4785 181.686C30.6562 186.572 34.541 190.018 40.0254 190.018C45.5098 190.018 49.377 186.572 50.5547 181.686C50.7832 180.666 50.9238 179.576 50.9238 178.469V164.793H45.668V178.557C45.668 179.365 45.5625 180.156 45.3516 180.912C44.7012 183.268 42.9609 185.148 40.0078 185.148C37.0898 185.148 35.3496 183.268 34.6816 180.912C34.4707 180.156 34.3652 179.365 34.3652 178.557V164.793H29.1094ZM55.4238 190H60.6973V164.793H55.4238V190Z" fill="#00C4F0"/>
<defs>
<linearGradient id="paint0_linear_1_130" x1="0" y1="0" x2="96.7553" y2="83.157" gradientUnits="userSpaceOnUse">
<stop stop-color="#414141"/>
<stop offset="1" stop-color="#2D2D2D"/>
</linearGradient>
<linearGradient id="paint1_linear_1_130" x1="1" y1="249" x2="97.7553" y2="332.157" gradientUnits="userSpaceOnUse">
<stop stop-color="#414141"/>
<stop offset="1" stop-color="#2D2D2D"/>
</linearGradient>
<linearGradient id="paint2_linear_1_130" x1="0" y1="130" x2="96.7553" y2="213.157" gradientUnits="userSpaceOnUse">
<stop stop-color="#414141"/>
<stop offset="1" stop-color="#2D2D2D"/>
</linearGradient>
<linearGradient id="paint3_linear_1_130" x1="0" y1="375" x2="96.7553" y2="458.157" gradientUnits="userSpaceOnUse">
<stop stop-color="#414141"/>
<stop offset="1" stop-color="#2D2D2D"/>
</linearGradient>
</defs>
</svg>
