<svg width="75" height="75" viewBox="0 0 75 75" fill="none" xmlns="http://www.w3.org/2000/svg">
<path d="M75 0L68.1673 67.4922L37.4541 75L6.82545 67.5027L0 0H75Z" fill="#264DE4"/>
<path d="M62.3178 63.1944L68.1568 5.51929H37.5001V69.2613L62.3178 63.1944Z" fill="#2965F1"/>
<path d="M15.6472 30.5552L16.4887 38.834H37.4999V30.5552H15.6472Z" fill="#EBEBEB"/>
<path d="M37.4999 13.7983H37.4675H13.9562L14.8098 22.0774H37.4999V13.7983Z" fill="#EBEBEB"/>
<path d="M37.4999 60.6698V52.0562L37.4588 52.0659L27.002 49.5762L26.3335 42.9734H21.2523H16.9082L18.2236 55.9725L37.4567 60.6804L37.4999 60.6698Z" fill="#EBEBEB"/>
<path d="M49.0293 38.834L47.9395 49.5711L37.4675 52.0633V60.6765L56.7159 55.9727L56.8571 54.574L59.0635 32.7782L59.2926 30.5551L60.9877 13.7983H37.4675V22.0774H50.6979L49.8435 30.5551H37.4675V38.834H49.0293Z" fill="#1E2235"/>
</svg>
