<svg width="50" height="73" viewBox="0 0 50 73" fill="none" xmlns="http://www.w3.org/2000/svg">
<path d="M12.5 73.0001C19.4 73.0001 25 67.5494 25 60.8335V48.6668H12.5C5.6 48.6668 0 54.1175 0 60.8335C0 67.5494 5.6 73.0001 12.5 73.0001Z" fill="#0ACF83"/>
<path d="M0 36.5C0 29.784 5.6 24.3333 12.5 24.3333H25V48.6666H12.5C5.6 48.6666 0 43.2159 0 36.5Z" fill="#A259FF"/>
<path d="M0 12.1667C0 5.45066 5.6 0 12.5 0H25V24.3333H12.5C5.6 24.3333 0 18.8827 0 12.1667Z" fill="#F24E1E"/>
<path d="M25 0H37.5C44.4 0 50 5.45066 50 12.1667C50 18.8827 44.4 24.3333 37.5 24.3333H25V0Z" fill="#FF7262"/>
<path d="M50 36.5C50 43.2159 44.4 48.6666 37.5 48.6666C30.6 48.6666 25 43.2159 25 36.5C25 29.784 30.6 24.3333 37.5 24.3333C44.4 24.3333 50 29.784 50 36.5Z" fill="#1ABCFE"/>
</svg>
