<svg width="75" height="75" viewBox="0 0 75 75" fill="none" xmlns="http://www.w3.org/2000/svg">
<path d="M73.5857 34.159L40.8399 1.41441C38.9552 -0.471469 35.8967 -0.471469 34.0096 1.41441L27.2098 8.21434L35.8357 16.8404C37.8402 16.163 40.1388 16.6174 41.7367 18.2153C43.3422 19.8234 43.7933 22.1417 43.0996 24.1527L51.4126 32.4662C53.4238 31.7733 55.7444 32.2215 57.3508 33.8305C59.5958 36.0747 59.5958 39.712 57.3508 41.9576C55.1052 44.2036 51.468 44.2036 49.2212 41.9576C47.5325 40.2672 47.1153 37.7871 47.9702 35.7067L40.2177 27.9541L40.2168 48.3559C40.7788 48.6338 41.2921 49.0008 41.7367 49.4428C43.9817 51.687 43.9817 55.3246 41.7367 57.572C39.4911 59.8168 35.8521 59.8168 33.6097 57.572C31.3647 55.3246 31.3647 51.6873 33.6097 49.4431C34.1477 48.9048 34.7871 48.4785 35.4909 48.1889V27.5969C34.7861 27.3092 34.1464 26.8827 33.6097 26.3427C31.9088 24.644 31.4998 22.1482 32.3714 20.0596L23.8682 11.5554L1.41504 34.0075C-0.471681 35.8951 -0.471681 38.9541 1.41504 40.8402L34.1614 73.5854C36.0466 75.4715 39.1047 75.4715 40.9923 73.5854L73.5854 40.9923C75.4715 39.1055 75.4715 36.0448 73.5854 34.159" fill="#EF4444"/>
</svg>
