<svg width="75" height="83" viewBox="0 0 75 83" fill="none" xmlns="http://www.w3.org/2000/svg">
<path d="M34.1161 0.885493C36.1654 -0.292502 38.8346 -0.297823 40.8822 0.885493C51.1832 6.73083 61.4874 12.567 71.7866 18.4159C73.7237 19.5117 75.0195 21.6767 74.9998 23.9183V59.0862C75.0142 61.4206 73.5904 63.6373 71.5467 64.7083C61.2796 70.5214 51.0177 76.3416 40.7524 82.1548C38.6607 83.3558 35.9379 83.2633 33.9115 81.9638C30.8334 80.1718 27.7501 78.3887 24.6717 76.5985C24.0427 76.2219 23.3335 75.9222 22.8894 75.3097C23.282 74.7782 23.9841 74.712 24.5545 74.4799C25.8394 74.0696 27.0195 73.411 28.1998 72.7719C28.4983 72.5667 28.8627 72.6454 29.1488 72.8289C31.781 74.3445 34.3899 75.9042 37.0308 77.4052C37.5942 77.7319 38.1647 77.2982 38.6462 77.0286C48.7215 71.3101 58.809 65.6132 68.8825 59.8929C69.2557 59.7126 69.4621 59.3147 69.4317 58.9041C69.4388 47.303 69.4335 35.6998 69.4353 24.0987C69.478 23.6328 69.2095 23.2044 68.7901 23.0138C58.5585 17.2273 48.3323 11.4319 38.1026 5.64389C37.9253 5.52152 37.7154 5.45586 37.5003 5.45555C37.2852 5.45523 37.0751 5.52027 36.8975 5.64211C26.6677 11.4319 16.4433 17.2326 6.21352 23.0188C5.79553 23.2098 5.51501 23.631 5.56476 24.0987C5.56652 35.6998 5.56476 47.3029 5.56476 58.9058C5.54702 59.1062 5.59083 59.3072 5.6903 59.4817C5.78977 59.6563 5.94011 59.7961 6.12109 59.8822C8.85095 61.4368 11.5843 62.9805 14.316 64.5298C15.8549 65.3616 17.7443 65.8559 19.4398 65.2185C20.936 64.6796 21.9848 63.1463 21.9563 61.5509C21.9704 50.0175 21.9492 38.4823 21.9669 26.9507C21.9295 26.4387 22.4131 26.0157 22.9088 26.0639C24.2204 26.055 25.5339 26.0461 26.8455 26.0674C27.393 26.055 27.7698 26.6063 27.7021 27.1221C27.6968 38.7286 27.7162 50.3353 27.6933 61.9417C27.6968 65.035 26.4314 68.4007 23.5823 69.9143C20.0724 71.7402 15.7342 71.353 12.2667 69.6021C9.26481 68.0975 6.40014 66.3217 3.45158 64.7098C1.40257 63.6447 -0.0141701 61.4191 0.000253352 59.0865V23.9183C-0.0212346 21.6303 1.32603 19.426 3.32353 18.3461C13.5889 12.5283 23.8525 6.706 34.1161 0.885493Z" fill="#8CC84B"/>
<path d="M43.0716 25.2465C47.5488 24.9571 52.3418 25.075 56.3706 27.29C59.4899 28.9874 61.2193 32.5497 61.2743 36.0299C61.1872 36.4994 60.6986 36.7583 60.2523 36.7261C58.9533 36.7243 57.654 36.7438 56.355 36.7172C55.804 36.7385 55.4837 36.2283 55.4146 35.7391C55.0413 34.0739 54.1371 32.4247 52.5764 31.6215C50.1806 30.4169 47.4028 30.4775 44.7904 30.5027C42.8832 30.6044 40.8325 30.7702 39.2168 31.8965C37.9763 32.7496 37.5996 34.4718 38.0423 35.8588C38.4597 36.8547 39.6044 37.176 40.5411 37.4722C45.9366 38.8893 51.6542 38.7483 56.9467 40.6133C59.1379 41.3736 61.2814 42.8517 62.0314 45.1556C63.0125 48.2435 62.5824 51.9345 60.3948 54.4135C58.6207 56.4534 56.0368 57.5637 53.4597 58.1668C50.0314 58.9345 46.4735 58.954 42.9919 58.6132C39.718 58.2383 36.3112 57.3746 33.7838 55.1344C31.6227 53.2499 30.5671 50.3137 30.6719 47.4797C30.6969 47.0011 31.1714 46.6674 31.628 46.7067C32.9361 46.696 34.2442 46.6925 35.5523 46.7085C36.0748 46.6709 36.4622 47.1244 36.489 47.6189C36.7303 49.2054 37.324 50.8706 38.7016 51.8112C41.3603 53.5337 44.6962 53.4158 47.7404 53.464C50.2625 53.3516 53.0936 53.3176 55.1517 51.6436C56.2376 50.6888 56.5593 49.0913 56.2658 47.7171C55.9479 46.5568 54.7393 46.0161 53.7014 45.6626C48.375 43.9705 42.5936 44.5845 37.3187 42.671C35.1773 41.911 33.1065 40.4741 32.2838 38.2647C31.1358 35.1378 31.6618 31.2701 34.0788 28.8748C36.4354 26.4922 39.8373 25.5746 43.0716 25.2462V25.2465Z" fill="#8CC84B"/>
</svg>
