<svg width="75" height="75" viewBox="0 0 75 75" fill="none" xmlns="http://www.w3.org/2000/svg">
<path d="M37.5 43.5784C41.1142 43.5784 44.044 40.857 44.044 37.5C44.044 34.143 41.1142 31.4216 37.5 31.4216C33.8859 31.4216 30.956 34.143 30.956 37.5C30.956 40.857 33.8859 43.5784 37.5 43.5784Z" fill="#61DAFB"/>
<path fill-rule="evenodd" clip-rule="evenodd" d="M6.74402 34.2976C5.2621 35.5402 4.77172 36.6261 4.77172 37.5C4.77172 38.3739 5.2621 39.4598 6.74402 40.7024C8.22568 41.9447 10.5036 43.1651 13.5216 44.2355C19.5411 46.3703 28.018 47.7372 37.5 47.7372C46.982 47.7372 55.4589 46.3703 61.4784 44.2355C64.4964 43.1651 66.7743 41.9447 68.256 40.7024C69.7379 39.4598 70.2283 38.3739 70.2283 37.5C70.2283 36.6261 69.7379 35.5402 68.256 34.2976C66.7743 33.0552 64.4964 31.8348 61.4784 30.7645C55.4589 28.6297 46.982 27.2628 37.5 27.2628C28.018 27.2628 19.5411 28.6297 13.5216 30.7645C10.5036 31.8348 8.22568 33.0552 6.74402 34.2976ZM11.8195 26.6238C18.5089 24.2514 27.5889 22.8306 37.5 22.8306C47.4111 22.8306 56.4911 24.2514 63.1805 26.6238C66.517 27.8071 69.3813 29.2702 71.4534 31.0076C73.5252 32.7448 75 34.935 75 37.5C75 40.0649 73.5252 42.2551 71.4534 43.9923C69.3813 45.7298 66.517 47.1928 63.1805 48.3761C56.4911 50.7485 47.4111 52.1694 37.5 52.1694C27.5889 52.1694 18.5089 50.7485 11.8195 48.3761C8.48304 47.1928 5.61867 45.7298 3.54659 43.9923C1.47476 42.2551 0 40.0649 0 37.5C0 34.935 1.47476 32.7448 3.54659 31.0076C5.61867 29.2702 8.48304 27.8071 11.8195 26.6238Z" fill="#61DAFB"/>
<path fill-rule="evenodd" clip-rule="evenodd" d="M25.1078 11.1584C23.2083 10.5877 21.9506 10.7362 21.1358 11.1731C20.321 11.6101 19.5537 12.5475 19.1362 14.3608C18.7187 16.1739 18.7198 18.6165 19.2308 21.5793C20.2501 27.4888 23.2142 34.9912 27.9552 42.6186C32.6961 50.2459 38.2091 56.3815 43.2092 60.1562C45.7161 62.0487 47.993 63.2709 49.8921 63.8416C51.7916 64.4123 53.0493 64.2638 53.8641 63.8269C54.6789 63.3899 55.4462 62.4525 55.8637 60.6392C56.2812 58.8261 56.2801 56.3835 55.7691 53.4207C54.7498 47.5111 51.7857 40.0088 47.0447 32.3814C42.3038 24.754 36.7908 18.6185 31.7907 14.8438C29.2838 12.9513 27.0069 11.7291 25.1078 11.1584ZM34.8002 11.4043C40.3568 15.5991 46.2216 22.1928 51.1772 30.1653C56.1327 38.1378 59.348 46.1524 60.4807 52.7195C61.0457 55.995 61.1138 59.0307 60.5299 61.5662C59.9461 64.1014 58.6414 66.3828 56.25 67.6653C53.8585 68.9478 51.079 68.8566 48.4234 68.0586C45.7675 67.2605 42.9712 65.6879 40.1997 63.5957C34.6431 59.4009 28.7783 52.8072 23.8227 44.8347C18.8672 36.8622 15.6519 28.8476 14.5192 22.2805C13.9542 19.005 13.8861 15.9693 14.47 13.4338C15.0538 10.8986 16.3585 8.61719 18.75 7.3347C21.1414 6.05221 23.9209 6.14343 26.5765 6.94142C29.2324 7.7395 32.0287 9.3121 34.8002 11.4043Z" fill="#61DAFB"/>
<path fill-rule="evenodd" clip-rule="evenodd" d="M55.8638 14.3608C55.4462 12.5475 54.679 11.61 53.8642 11.1731C53.0494 10.7361 51.7917 10.5876 49.8922 11.1584C47.993 11.7291 45.7162 12.9513 43.2093 14.8438C38.2091 18.6185 32.6962 24.754 27.9552 32.3814C23.2143 40.0087 20.2502 47.5111 19.2309 53.4206C18.7198 56.3835 18.7187 58.8261 19.1362 60.6391C19.5538 62.4525 20.3211 63.3899 21.1359 63.8269C21.9507 64.2638 23.2083 64.4123 25.1078 63.8415C27.007 63.2708 29.2838 62.0486 31.7907 60.1561C36.7909 56.3814 42.3038 50.2459 47.0448 42.6186C51.7858 34.9912 54.7498 27.4888 55.7691 21.5793C56.2802 18.6165 56.2813 16.1739 55.8638 14.3608ZM60.4808 22.2804C59.348 28.8476 56.1327 36.8621 51.1772 44.8347C46.2217 52.8072 40.3569 59.4009 34.8003 63.5956C32.0288 65.6879 29.2325 67.2605 26.5766 68.0586C23.9209 68.8565 21.1415 68.9478 18.75 67.6653C16.3585 66.3828 15.0538 64.1014 14.4701 61.5662C13.8862 59.0307 13.9543 55.995 14.5193 52.7195C15.652 46.1523 18.8673 38.1378 23.8228 30.1653C28.7783 22.1927 34.6432 15.5991 40.1998 11.4043C42.9712 9.31207 45.7675 7.73947 48.4235 6.94139C51.0791 6.1434 53.8585 6.05219 56.25 7.33467C58.6415 8.61716 59.9462 10.8986 60.53 13.4338C61.1138 15.9693 61.0457 19.0049 60.4808 22.2804Z" fill="#61DAFB"/>
</svg>
