<svg width="100" height="86" viewBox="0 0 100 86" fill="none" xmlns="http://www.w3.org/2000/svg">
<path d="M86.1078 49.438C82.6191 49.459 79.5871 50.4225 77.0482 51.8468C76.1167 49.7313 75.1851 47.8461 75.0207 46.4637C74.8381 44.8509 74.6189 43.8664 74.8381 41.9394C75.0573 40.0123 76.0436 37.2684 76.0253 37.059C76.0071 36.8495 75.8061 35.865 73.797 35.8441C71.7878 35.8232 70.0526 36.284 69.8516 36.8914C69.6507 37.4988 69.2671 38.8813 69.0114 40.3056C68.6644 42.4002 64.993 49.8779 62.8925 53.7948C62.2167 52.2657 61.6322 50.9252 61.5043 49.857C61.3217 48.2441 61.1025 47.2597 61.3217 45.3326C61.5409 43.4056 62.5272 40.6617 62.5089 40.4522C62.4907 40.2428 62.2898 39.2583 60.2806 39.2373C58.2714 39.2164 56.5362 39.6772 56.3352 40.2846C56.1343 40.8921 55.9151 42.3164 55.495 43.6988C55.0749 45.0813 50.1981 57.5651 48.9195 60.7908C48.2619 62.4455 47.6957 63.7651 47.2939 64.6658C47.2939 64.6658 47.2756 64.7286 47.2208 64.8333C46.8738 65.6083 46.6729 66.0273 46.6729 66.0273C46.6729 66.0273 46.6729 66.0273 46.6729 66.0482C46.3989 66.6137 46.1066 67.1374 45.9605 67.1374C45.8509 67.1374 45.65 65.6293 45.997 63.5766C46.7277 59.2408 48.4629 52.4962 48.4446 52.2657C48.4446 52.1401 48.7734 50.9671 47.3121 50.3597C45.8874 49.7522 45.376 50.7576 45.2482 50.7576C45.1203 50.7576 45.029 51.1137 45.029 51.1137C45.029 51.1137 46.6181 43.5313 41.9969 43.5313C39.111 43.5313 35.1291 47.1549 33.1565 50.4225C31.9144 51.1975 29.2659 52.8522 26.4348 54.6326C25.3571 55.3239 24.243 56.0151 23.2018 56.6644C23.1288 56.5806 23.0557 56.4759 22.9826 56.3921C17.3934 49.5428 7.05523 44.7042 7.4936 35.509C7.65799 32.1576 8.66258 23.3603 27.3481 12.6778C42.7275 3.98526 54.9653 6.39405 57.0841 11.7353C60.1162 19.3596 50.5269 33.5191 34.636 35.5718C28.5719 36.3468 25.3937 33.6657 24.59 32.6603C23.7498 31.613 23.6219 31.5502 23.3114 31.7596C22.8 32.0738 23.1288 33.0164 23.3114 33.561C23.7863 34.9853 25.7407 37.4988 29.0468 38.7346C31.9692 39.8238 39.0745 40.4313 47.6774 36.6191C57.3033 32.3461 64.8286 20.4697 62.6185 10.5204C60.4084 0.424444 45.7961 -2.90597 31.9692 2.7285C23.7498 6.07986 14.8363 11.3582 8.42513 18.2285C0.808465 26.3975 -0.397049 33.4982 0.096116 36.4725C1.86786 47.0293 14.5623 53.8995 19.6401 58.9894C19.3844 59.157 19.1469 59.3036 18.946 59.4293C16.4071 60.8745 6.72645 66.6766 4.31542 72.8138C1.57561 79.7678 4.75379 84.753 6.85431 85.4232C13.3751 87.4969 20.0784 83.7685 23.6767 77.6104C27.275 71.4523 26.8366 63.4509 25.1745 59.7854C25.1562 59.7435 25.138 59.7016 25.1014 59.6597C25.759 59.2198 26.4348 58.759 27.0924 58.3191C28.3892 57.4394 29.6678 56.6225 30.7637 55.9522C30.1427 57.9002 29.686 60.2252 29.4669 63.5766C29.1929 67.5144 30.5993 72.6252 32.4441 74.636C33.2661 75.5158 34.2341 75.5367 34.8551 75.5367C37.0105 75.5367 37.9785 73.484 39.0562 71.0543C40.3713 68.08 41.5585 64.6239 41.5585 64.6239C41.5585 64.6239 40.079 73.9658 44.0974 73.9658C45.5587 73.9658 47.0382 71.7874 47.6957 70.6773C47.6957 70.6982 47.6957 70.6982 47.6957 70.6982C47.6957 70.6982 47.7322 70.6354 47.8053 70.4887C47.9514 70.2165 48.0428 70.0489 48.0428 70.0489C48.0428 70.0489 48.0428 70.0279 48.0428 70.007C48.6273 68.834 49.9424 66.1739 51.8968 61.7543C54.4174 56.057 56.8467 48.9353 56.8467 48.9353C56.8467 48.9353 57.0659 50.6739 57.8147 53.5644C58.2531 55.261 59.1664 57.1252 59.897 58.9266C59.3125 59.8691 58.9472 60.3928 58.9472 60.3928C58.9472 60.3928 58.9472 60.3928 58.9655 60.4137C58.4906 61.1259 57.9791 61.9009 57.4129 62.655C55.422 65.3779 53.0475 68.4989 52.7187 69.3996C52.3351 70.4678 52.4265 71.2428 53.1571 71.8712C53.6868 72.332 54.6366 72.3948 55.6046 72.332C57.3946 72.1854 58.6549 71.6827 59.276 71.3685C60.244 70.9705 61.3765 70.3631 62.4359 69.4624C64.3903 67.8077 65.5775 65.4408 65.4679 62.3198C65.4131 60.6022 64.92 58.8847 64.3172 57.2718C64.4999 56.9786 64.6643 56.6853 64.8469 56.3921C67.9338 51.2184 70.3265 45.5421 70.3265 45.5421C70.3265 45.5421 70.5457 47.2806 71.2946 50.1712C71.6599 51.6374 72.4088 53.2293 73.0663 54.7793C70.1621 57.4813 68.3721 60.6232 67.7328 62.6759C66.5821 66.4881 67.4771 68.2056 69.1758 68.6036C69.943 68.7921 71.0389 68.3732 71.8426 67.9752C72.8654 67.5982 74.0709 66.9489 75.2216 65.9854C77.176 64.3306 79.0574 62.0266 78.9478 58.9056C78.893 57.4813 78.5642 56.0779 78.1076 54.7164C80.5734 53.5435 83.7516 52.8941 87.8065 53.4387C96.5008 54.6117 98.2178 60.8326 97.889 63.4509C97.5602 66.0691 95.7337 67.4935 95.1309 67.9333C94.5282 68.3732 94.3273 68.5198 94.382 68.834C94.4551 69.2948 94.7474 69.2739 95.2588 69.1901C95.9711 69.0435 99.8251 67.0746 99.9895 62.257C100.264 56.0989 95.1492 49.3752 86.1078 49.438ZM19.0373 75.3692C16.1514 78.9719 12.133 80.3334 10.3978 79.1813C8.53473 77.9455 9.26534 72.6252 12.8088 68.8131C14.9641 66.4881 17.7405 64.3306 19.5853 63.011C20.0054 62.7178 20.6264 62.2989 21.3753 61.7752C21.5032 61.6914 21.5762 61.6495 21.5762 61.6495C21.7223 61.5448 21.8685 61.4401 22.0146 61.3353C23.3114 66.7813 22.0694 71.5779 19.0373 75.3692ZM40.0425 58.9894C39.0379 61.7962 36.9374 68.9806 35.6588 68.5827C34.5629 68.2475 33.8871 62.8016 35.4396 57.4185C36.2251 54.7164 37.8872 51.4907 38.8553 50.234C40.4261 48.2232 42.1613 47.5529 42.5814 48.3698C43.1111 49.438 40.6635 57.2299 40.0425 58.9894ZM57.3764 68.4989C56.9563 68.7502 56.5544 68.9178 56.3718 68.7921C56.2439 68.7083 56.5544 68.3732 56.5544 68.3732C56.5544 68.3732 58.728 65.6921 59.5865 64.4772C60.0796 63.7651 60.6641 62.9272 61.2852 61.9847C61.2852 62.0685 61.2852 62.1732 61.2852 62.257C61.2852 65.4617 58.5819 67.6191 57.3764 68.4989ZM70.7466 65.0009C70.4361 64.7495 70.4909 63.9117 71.532 61.2935C71.9339 60.2671 72.8837 58.5495 74.5093 56.8948C74.692 57.5651 74.8198 58.2144 74.8016 58.8218C74.7833 62.8644 72.2627 64.3725 70.7466 65.0009Z" fill="#F472B6"/>
</svg>
